<?xml version="1.0" encoding="UTF-8"?>
<svg width="50px" height="49px" viewBox="0 0 50 49" version="1.1" xmlns="http://www.w3.org/2000/svg" xmlns:xlink="http://www.w3.org/1999/xlink">
    <!-- Generator: Sketch 42 (36781) - http://www.bohemiancoding.com/sketch -->
    <title>Group 30 Copy</title>
    <desc>Created with Sketch.</desc>
    <defs></defs>
    <g id="Page-1" stroke="none" stroke-width="1" fill="none" fill-rule="evenodd">
        <g id="Group-30-Copy" transform="translate(1.125969, 0.136253)">
            <g id="Group" transform="translate(0.000000, 0.982193)" stroke="#5596E6" stroke-width="1.9998" stroke-linecap="round" stroke-linejoin="round">
                <path d="M36.722,32.164 C36.722,29.24 34.314,26.832 31.39,26.832 L30.96,26.832 C29.498,21.328 24.51,17.286 18.576,17.286 C11.524,17.286 5.762,23.048 5.762,30.1 C5.762,30.616 5.762,31.046 5.848,31.562 L5.762,31.562 C2.58,31.562 0.086,34.142 0.086,37.238 C0.086,40.42 2.666,42.914 5.762,42.914 L36.722,42.914 C39.646,42.914 42.054,40.506 42.054,37.582 C42.054,34.572 39.646,32.164 36.722,32.164 Z" id="Shape"></path>
                <rect id="Rectangle-path" x="28.036" y="0.774" width="4.73" height="4.73"></rect>
                <rect id="Rectangle-path" x="9.374" y="0.774" width="4.73" height="4.73"></rect>
                <rect id="Rectangle-path" x="28.036" y="10.148" width="4.73" height="4.73"></rect>
                <rect id="Rectangle-path" x="0.086" y="10.148" width="4.73" height="4.73"></rect>
                <rect id="Rectangle-path" x="37.324" y="19.436" width="4.73" height="4.73"></rect>
                <rect id="Rectangle-path" x="9.374" y="28.81" width="4.73" height="4.73"></rect>
                <rect id="Rectangle-path" x="18.748" y="28.81" width="4.73" height="4.73"></rect>
                <rect id="Rectangle-path" x="9.374" y="38.098" width="4.73" height="4.73"></rect>
                <rect id="Rectangle-path" x="28.036" y="38.098" width="4.73" height="4.73"></rect>
            </g>
            <g id="Group-33-Copy-12" transform="translate(24.500000, 24.482193)">
                <ellipse id="Oval-5" fill="#325C80" cx="12.1162811" cy="12.1162811" rx="12.1162811" ry="12.1162811"></ellipse>
                <g id="Page-1-Copy" transform="translate(3.461795, 3.461795)" fill="#FFFFFF">
                    <path d="M14.9265122,6.73136641 L13.1336492,8.5249286 C12.1176469,9.54093089 10.5037906,9.57589312 9.43184874,8.65848431 L12.2456087,5.84402511 L11.5037103,5.10282592 L8.68995031,7.91658587 C7.7725415,6.84464402 7.80890221,5.23078767 8.82280677,4.21548463 L10.6177675,2.42192243 C11.1505918,1.88909811 11.8498363,1.62268595 12.5490808,1.62268595 C13.2497238,1.62268595 13.9489683,1.88909811 14.4810934,2.42192243 L14.9265122,2.86734119 C15.9914616,3.9322906 15.9914616,5.66641701 14.9265122,6.73136641 M8.52702634,13.1308523 L6.73346414,14.9244144 C5.66851474,15.9893639 3.93368908,15.9893639 2.86873968,14.9244144 L2.42332092,14.4796949 C1.35977001,13.4147455 1.35977001,11.6799199 2.42332092,10.6149705 L4.2182816,8.82140828 C4.75040668,8.2892832 5.4496512,8.02287104 6.14889572,8.02287104 C6.7831105,8.02287104 7.40963359,8.25292248 7.91938285,8.68855182 L5.10422441,11.5023118 L5.84612285,12.2442102 L8.66058204,9.42975101 C9.57869009,10.5023921 9.54163013,12.1169477 8.52702634,13.1308523 M15.6684106,2.12544276 L15.2229919,1.680024 C14.5111609,0.96889232 13.5622861,0.576616145 12.5504793,0.576616145 C11.5365747,0.576616145 10.5876999,0.96889232 9.87586902,1.680024 L8.08160758,3.47428544 C7.36977666,4.18541711 6.97819972,5.13569041 6.97819972,6.14819648 C6.97819972,6.48173612 7.03553778,6.80338859 7.11804863,7.11665014 C6.80478708,7.03413929 6.48383385,6.97680124 6.15029421,6.97680124 C5.1370889,6.97680124 4.18821409,7.36837817 3.47638317,8.08020909 L1.68212173,9.87307204 C0.208114283,11.3477787 0.208114283,13.7468867 1.68212173,15.2215934 L2.12684125,15.6656136 C2.83867217,16.3774446 3.78894547,16.7690215 4.80145153,16.7690215 C5.81325835,16.7690215 6.76353166,16.3774446 7.47536258,15.6656136 L9.26822553,13.8727507 C9.98005645,13.1609198 10.3716334,12.2113457 10.3716334,11.1988396 C10.3716334,10.8653 10.3149946,10.5436475 10.2324837,10.2310852 C10.5457453,10.3128968 10.8673977,10.3702349 11.2009374,10.3702349 C12.2127442,10.3702349 13.1637167,9.97865796 13.8748484,9.26682704 L15.6684106,7.47326484 C16.3795423,6.76143392 16.7718185,5.81185987 16.7718185,4.79865456 C16.7718185,3.78684774 16.3795423,2.83727368 15.6684106,2.12544276" id="Fill-1"></path>
                </g>
            </g>
        </g>
    </g>
</svg>
