<?xml version="1.0" encoding="utf-8"?>
<!-- Generator: Adobe Illustrator 19.2.1, SVG Export Plug-In . SVG Version: 6.00 Build 0)  -->
<svg version="1.1" id="Layer_1" xmlns="http://www.w3.org/2000/svg" xmlns:xlink="http://www.w3.org/1999/xlink" x="0px" y="0px"
	 viewBox="0 0 100 100" style="enable-background:new 0 0 100 100;" xml:space="preserve">
<style type="text/css">
	.st0{fill:#C1E6FE;}
	.st1{fill:#5898E3;}
	.st2{fill:#447ABC;}
</style>
<rect x="27.9" y="57.6" class="st0" width="46.6" height="21.7"/>
<path class="st0" d="M70.8,58.1c0,9.7-30,17.6-39.8,17.6s-17.6-7.9-17.6-17.6S21.3,40.5,31,40.5S70.8,48.3,70.8,58.1z"/>
<path class="st0" d="M88.5,58.1c0,9.7-7.9,17.6-17.6,17.6s-35.5-7.9-35.5-17.6s25.8-17.6,35.5-17.6S88.5,48.3,88.5,58.1z"/>
<ellipse class="st0" cx="50.7" cy="36.7" rx="20.9" ry="19.2"/>
<g id="RdVmQV_1_">
	<g>
		<path class="st1" d="M50.8,82.6c-6.5,0-13,0.1-19.5,0c-10.2-0.2-19.4-6.5-23-16.2C4,54.3,10.1,40.8,22.2,36
			c2.4-0.9,3.2-2.2,3.7-4.5c1.4-6.8,5.4-12,11.5-15.3c13.8-7.7,30.3-1,35.3,13.2c0.4,1.2,0.7,2.5,1,3.8c0.1,0.7,0.4,1.1,1.2,1.2
			c6.6,1.1,11.9,4.3,15.9,9.5c4.1,5.4,5.7,11.6,4.5,18.3c-1.8,9.7-7.7,16-16.9,19.1c-2.5,0.8-5.2,1.1-7.8,1.2
			C63.8,82.7,57.3,82.6,50.8,82.6C50.8,82.6,50.8,82.6,50.8,82.6z M53.4,75.6c-0.5-0.6-0.8-1-1.2-1.4c-2.1-2.4-3.7-5.1-4.7-8.1
			c-0.6-1.8,0.3-3.7,1.9-4.3c1.9-0.7,3.9,0.2,4.6,2.1c3,8.8,12.8,14.2,22.7,10.9c9.2-3,14.3-13.9,10.5-22.8
			c-2.9-6.9-8.3-10.5-15.8-11c-2.3-0.1-4.6-1.6-4.6-4.5c0-1.1-0.1-2.3-0.4-3.3c-1.9-6.7-6.1-11.2-13-12.8
			c-8.7-2.1-17.3,2.5-20.5,10.7c-1.1,3-1.1,2.9,2,3.3c5.5,0.7,10.2,3.1,14,7c0.9,0.9,1.3,2,0.7,3.3c-1,2.6-3.9,3.1-6,1.2
			c-6.2-5.8-15.1-6.6-22.2-2c-9.2,6-10.6,19-2.7,26.7c3.4,3.3,7.6,5.1,12.4,5.1c6.8,0,13.6,0,20.4,0C52.3,75.7,52.7,75.6,53.4,75.6z
			"/>
	</g>
</g>
<g>
	<path class="st2" d="M66.6,82.6C66.6,82.6,66.5,82.6,66.6,82.6c-0.2,0-0.3,0-0.4,0C66.4,82.6,66.5,82.6,66.6,82.6z"/>
	<path class="st2" d="M90.6,43.9c-4-5.3-9.3-8.5-15.9-9.5c-0.7-0.1-1-0.5-1.2-1.2c-0.3-1.3-0.5-2.6-1-3.8
		C67.6,15.2,51.1,8.5,37.3,16.2c-6,3.4-10,8.5-11.5,15.3c-0.4,1.9-1,3.1-2.6,4c2.6-0.9,5.5-1.5,8.5-1.5c0.4,0,0.9,0,1.3,0
		c-1-0.3-0.8-0.9,0-3c3.1-8.3,11.8-12.8,20.5-10.7c6.9,1.6,11.1,6.1,13,12.8c0.3,1.1,0.4,2.2,0.4,3.3c0,2.9,2.3,4.3,4.6,4.5
		c7.4,0.4,12.8,4.1,15.8,11c3.8,8.9-1.3,19.7-10.5,22.8C66.8,78,57.1,72.6,54,63.8c-0.7-1.9-2.6-2.7-4.6-2.1
		c-1.6,0.6-2.5,2.5-1.9,4.3c1,3,2.6,5.7,4.7,8.1c0.3,0.4,5.1,5.4,14.3,8.4c1.3,0,2.5,0,3.8-0.1c2.6-0.1,5.3-0.4,7.8-1.2
		c9.3-3.1,15.1-9.4,16.9-19.1C96.3,55.5,94.6,49.3,90.6,43.9z"/>
</g>
</svg>
